<svg xmlns="http://www.w3.org/2000/svg" width="433" height="436" viewBox="0 0 433 436" fill="none"><path fill-rule="evenodd" clip-rule="evenodd" d="M388.38 316.951L425.609 279.721C430.241 275.09 432.836 268.814 432.836 262.268C432.836 230.046 432.828 72.7779 432.836 24.6796C432.836 11.0579 421.793 0.0155733 408.172 0.0155733L170.584 0.0156744C164.037 0.0156744 157.761 2.61054 153.138 7.24916C145.761 14.6257 129.711 30.6766 115.9 44.4718C108.848 51.524 106.736 62.1436 110.553 71.3605C114.377 80.5699 123.367 86.5889 133.346 86.5814L342.937 86.5805C344.777 86.5805 346.271 88.0741 346.271 89.9144L346.27 299.505C346.262 309.484 352.281 318.475 361.491 322.299C370.708 326.115 381.327 324.003 388.38 316.951ZM280.426 427.905L317.655 390.675C322.279 386.051 324.881 379.769 324.874 373.229L324.874 135.642C324.874 122.02 313.831 110.977 300.21 110.977L62.6219 110.977C56.0825 110.97 49.7996 113.572 45.1836 118.203C37.7996 125.587 21.7494 141.638 7.94664 155.425C0.886881 162.485 -1.21763 173.097 2.59886 182.314C6.41535 191.531 15.4137 197.543 25.3848 197.543L234.975 197.542C236.815 197.542 238.309 199.036 238.309 200.876L238.309 410.466C238.309 420.438 244.32 429.436 253.537 433.252C262.754 437.069 273.366 434.964 280.426 427.905Z" fill="black" fill-opacity="0.1"></path></svg>